<?xml version="1.0" encoding="UTF-8" standalone="no"?>
<!-- Created with Inkscape (http://www.inkscape.org/) -->

<svg
   xmlns:dc="http://purl.org/dc/elements/1.1/"
   xmlns:cc="http://creativecommons.org/ns#"
   xmlns:rdf="http://www.w3.org/1999/02/22-rdf-syntax-ns#"
   xmlns:svg="http://www.w3.org/2000/svg"
   xmlns="http://www.w3.org/2000/svg"
   xmlns:sodipodi="http://sodipodi.sourceforge.net/DTD/sodipodi-0.dtd"
   xmlns:inkscape="http://www.inkscape.org/namespaces/inkscape"
   width="744.09448819"
   height="1052.3622047"
   id="svg2"
   version="1.1"
   inkscape:version="0.48.4 r9939"
   sodipodi:docname="New document 1">
  <defs
     id="defs4" />
  <sodipodi:namedview
     id="base"
     pagecolor="#ffffff"
     bordercolor="#666666"
     borderopacity="1.0"
     inkscape:pageopacity="0.0"
     inkscape:pageshadow="2"
     inkscape:zoom="0.49497475"
     inkscape:cx="550.37315"
     inkscape:cy="807.7973"
     inkscape:document-units="px"
     inkscape:current-layer="layer1"
     showgrid="true"
     inkscape:snap-bbox="false"
     inkscape:snap-nodes="true"
     inkscape:bbox-paths="false"
     inkscape:bbox-nodes="false"
     inkscape:snap-bbox-edge-midpoints="false"
     inkscape:snap-bbox-midpoints="false"
     inkscape:snap-global="true"
     objecttolerance="10000"
     guidetolerance="10000"
     showguides="true"
     inkscape:guide-bbox="true"
     inkscape:window-width="1301"
     inkscape:window-height="744"
     inkscape:window-x="65"
     inkscape:window-y="24"
     inkscape:window-maximized="1">
    <inkscape:grid
       type="xygrid"
       id="grid2989"
       empspacing="5"
       visible="true"
       enabled="true"
       snapvisiblegridlinesonly="true" />
  </sodipodi:namedview>
  <metadata
     id="metadata7">
    <rdf:RDF>
      <cc:Work
         rdf:about="">
        <dc:format>image/svg+xml</dc:format>
        <dc:type
           rdf:resource="http://purl.org/dc/dcmitype/StillImage" />
        <dc:title></dc:title>
      </cc:Work>
    </rdf:RDF>
  </metadata>
  <g
     inkscape:label="Layer 1"
     inkscape:groupmode="layer"
     id="layer1">
    <path
       style="fill:none;stroke:#000000;stroke-width:1px;stroke-linecap:butt;stroke-linejoin:miter;stroke-opacity:1"
       d="m 100,112.36218 320,0 0,180 -320,0 z"
       id="path2991"
       inkscape:connector-curvature="0"
       inkscape:export-filename="/home/rustam/convergent-tree.png"
       inkscape:export-xdpi="90"
       inkscape:export-ydpi="90" />
    <path
       style="fill:none;stroke:#000000;stroke-width:1px;stroke-linecap:butt;stroke-linejoin:miter;stroke-opacity:1"
       d="m 100,132.36218 320,0"
       id="path2993"
       inkscape:connector-curvature="0"
       inkscape:export-filename="/home/rustam/convergent-tree.png"
       inkscape:export-xdpi="90"
       inkscape:export-ydpi="90" />
    <path
       style="fill:none;stroke:#000000;stroke-width:1px;stroke-linecap:butt;stroke-linejoin:miter;stroke-opacity:1"
       d="m 100,152.36218 320,0"
       id="path2995"
       inkscape:connector-curvature="0"
       inkscape:export-filename="/home/rustam/convergent-tree.png"
       inkscape:export-xdpi="90"
       inkscape:export-ydpi="90" />
    <path
       style="fill:none;stroke:#000000;stroke-width:1px;stroke-linecap:butt;stroke-linejoin:miter;stroke-opacity:1"
       d="m 100,172.36218 320,0"
       id="path2997"
       inkscape:connector-curvature="0"
       inkscape:export-filename="/home/rustam/convergent-tree.png"
       inkscape:export-xdpi="90"
       inkscape:export-ydpi="90" />
    <path
       style="fill:none;stroke:#000000;stroke-width:1px;stroke-linecap:butt;stroke-linejoin:miter;stroke-opacity:1"
       d="m 100,192.36218 320,0"
       id="path2999"
       inkscape:connector-curvature="0"
       inkscape:export-filename="/home/rustam/convergent-tree.png"
       inkscape:export-xdpi="90"
       inkscape:export-ydpi="90" />
    <path
       style="fill:none;stroke:#000000;stroke-width:1px;stroke-linecap:butt;stroke-linejoin:miter;stroke-opacity:1"
       d="m 100,212.36218 320,0"
       id="path3001"
       inkscape:connector-curvature="0"
       inkscape:export-filename="/home/rustam/convergent-tree.png"
       inkscape:export-xdpi="90"
       inkscape:export-ydpi="90" />
    <path
       style="fill:none;stroke:#000000;stroke-width:1px;stroke-linecap:butt;stroke-linejoin:miter;stroke-opacity:1"
       d="m 100,232.36218 320,0"
       id="path3003"
       inkscape:connector-curvature="0"
       inkscape:export-filename="/home/rustam/convergent-tree.png"
       inkscape:export-xdpi="90"
       inkscape:export-ydpi="90" />
    <path
       style="fill:none;stroke:#000000;stroke-width:1px;stroke-linecap:butt;stroke-linejoin:miter;stroke-opacity:1"
       d="m 100,252.36218 320,0"
       id="path3005"
       inkscape:connector-curvature="0"
       inkscape:export-filename="/home/rustam/convergent-tree.png"
       inkscape:export-xdpi="90"
       inkscape:export-ydpi="90" />
    <path
       style="fill:none;stroke:#000000;stroke-width:1px;stroke-linecap:butt;stroke-linejoin:miter;stroke-opacity:1"
       d="m 100,272.36218 320,0"
       id="path3007"
       inkscape:connector-curvature="0"
       inkscape:export-filename="/home/rustam/convergent-tree.png"
       inkscape:export-xdpi="90"
       inkscape:export-ydpi="90" />
    <path
       style="fill:none;stroke:#000000;stroke-width:1px;stroke-linecap:butt;stroke-linejoin:miter;stroke-opacity:1"
       d="m 120,112.36218 0,180"
       id="path3009"
       inkscape:connector-curvature="0"
       inkscape:export-filename="/home/rustam/convergent-tree.png"
       inkscape:export-xdpi="90"
       inkscape:export-ydpi="90" />
    <path
       style="fill:none;stroke:#000000;stroke-width:1px;stroke-linecap:butt;stroke-linejoin:miter;stroke-opacity:1"
       d="m 140,112.36218 0,180"
       id="path3011"
       inkscape:connector-curvature="0"
       inkscape:export-filename="/home/rustam/convergent-tree.png"
       inkscape:export-xdpi="90"
       inkscape:export-ydpi="90" />
    <path
       style="fill:none;stroke:#000000;stroke-width:1px;stroke-linecap:butt;stroke-linejoin:miter;stroke-opacity:1"
       d="m 160,112.36218 0,180"
       id="path3013"
       inkscape:connector-curvature="0"
       inkscape:export-filename="/home/rustam/convergent-tree.png"
       inkscape:export-xdpi="90"
       inkscape:export-ydpi="90" />
    <path
       style="fill:none;stroke:#000000;stroke-width:1px;stroke-linecap:butt;stroke-linejoin:miter;stroke-opacity:1"
       d="m 180,112.36218 0,180"
       id="path3015"
       inkscape:connector-curvature="0"
       inkscape:export-filename="/home/rustam/convergent-tree.png"
       inkscape:export-xdpi="90"
       inkscape:export-ydpi="90" />
    <path
       style="fill:none;stroke:#000000;stroke-width:1px;stroke-linecap:butt;stroke-linejoin:miter;stroke-opacity:1"
       d="m 200,112.36218 0,180"
       id="path3017"
       inkscape:connector-curvature="0"
       inkscape:export-filename="/home/rustam/convergent-tree.png"
       inkscape:export-xdpi="90"
       inkscape:export-ydpi="90" />
    <path
       style="fill:none;stroke:#000000;stroke-width:1px;stroke-linecap:butt;stroke-linejoin:miter;stroke-opacity:1"
       d="m 220,112.36218 0,180 0,0 0,0"
       id="path3019"
       inkscape:connector-curvature="0"
       inkscape:export-filename="/home/rustam/convergent-tree.png"
       inkscape:export-xdpi="90"
       inkscape:export-ydpi="90" />
    <path
       style="fill:none;stroke:#000000;stroke-width:1px;stroke-linecap:butt;stroke-linejoin:miter;stroke-opacity:1"
       d="m 240,112.36218 0,180"
       id="path3021"
       inkscape:connector-curvature="0"
       inkscape:export-filename="/home/rustam/convergent-tree.png"
       inkscape:export-xdpi="90"
       inkscape:export-ydpi="90" />
    <path
       style="fill:none;stroke:#000000;stroke-width:1px;stroke-linecap:butt;stroke-linejoin:miter;stroke-opacity:1"
       d="m 260,112.36218 0,180"
       id="path3023"
       inkscape:connector-curvature="0"
       inkscape:export-filename="/home/rustam/convergent-tree.png"
       inkscape:export-xdpi="90"
       inkscape:export-ydpi="90" />
    <path
       style="fill:none;stroke:#000000;stroke-width:1px;stroke-linecap:butt;stroke-linejoin:miter;stroke-opacity:1"
       d="m 280,112.36218 0,180"
       id="path3025"
       inkscape:connector-curvature="0"
       inkscape:export-filename="/home/rustam/convergent-tree.png"
       inkscape:export-xdpi="90"
       inkscape:export-ydpi="90" />
    <path
       style="fill:none;stroke:#000000;stroke-width:1px;stroke-linecap:butt;stroke-linejoin:miter;stroke-opacity:1"
       d="m 300,112.36218 0,180"
       id="path3027"
       inkscape:connector-curvature="0"
       inkscape:export-filename="/home/rustam/convergent-tree.png"
       inkscape:export-xdpi="90"
       inkscape:export-ydpi="90" />
    <path
       style="fill:none;stroke:#000000;stroke-width:1px;stroke-linecap:butt;stroke-linejoin:miter;stroke-opacity:1"
       d="m 320,112.36218 0,180"
       id="path3029"
       inkscape:connector-curvature="0"
       inkscape:export-filename="/home/rustam/convergent-tree.png"
       inkscape:export-xdpi="90"
       inkscape:export-ydpi="90" />
    <path
       style="fill:none;stroke:#000000;stroke-width:1px;stroke-linecap:butt;stroke-linejoin:miter;stroke-opacity:1"
       d="m 340,112.36218 0,180"
       id="path3031"
       inkscape:connector-curvature="0"
       inkscape:export-filename="/home/rustam/convergent-tree.png"
       inkscape:export-xdpi="90"
       inkscape:export-ydpi="90" />
    <path
       style="fill:none;stroke:#000000;stroke-width:1px;stroke-linecap:butt;stroke-linejoin:miter;stroke-opacity:1"
       d="m 360,112.36218 0,180"
       id="path3033"
       inkscape:connector-curvature="0"
       inkscape:export-filename="/home/rustam/convergent-tree.png"
       inkscape:export-xdpi="90"
       inkscape:export-ydpi="90" />
    <path
       style="fill:none;stroke:#000000;stroke-width:1px;stroke-linecap:butt;stroke-linejoin:miter;stroke-opacity:1"
       d="m 380,112.36218 0,180"
       id="path3035"
       inkscape:connector-curvature="0"
       inkscape:export-filename="/home/rustam/convergent-tree.png"
       inkscape:export-xdpi="90"
       inkscape:export-ydpi="90" />
    <path
       style="fill:none;stroke:#000000;stroke-width:1px;stroke-linecap:butt;stroke-linejoin:miter;stroke-opacity:1"
       d="m 400,112.36218 0,180"
       id="path3037"
       inkscape:connector-curvature="0"
       inkscape:export-filename="/home/rustam/convergent-tree.png"
       inkscape:export-xdpi="90"
       inkscape:export-ydpi="90" />
    <path
       style="fill:none;stroke:#000000;stroke-width:0.66211897px;stroke-linecap:butt;stroke-linejoin:miter;stroke-opacity:1"
       d="m 100.8057,331.78714 140.02565,0 0,180.33788 -140.02565,0 z"
       id="path2991-8"
       inkscape:connector-curvature="0"
       inkscape:export-filename="/home/rustam/non-convergent-tree.png"
       inkscape:export-xdpi="90"
       inkscape:export-ydpi="90" />
    <path
       style="fill:none;stroke:#000000;stroke-width:0.66083753px;stroke-linecap:butt;stroke-linejoin:miter;stroke-opacity:1"
       d="m 100.69299,351.95608 139.74599,0"
       id="path2993-1"
       inkscape:connector-curvature="0"
       inkscape:export-filename="/home/rustam/non-convergent-tree.png"
       inkscape:export-xdpi="90"
       inkscape:export-ydpi="90" />
    <path
       style="fill:none;stroke:#000000;stroke-width:0.66083753px;stroke-linecap:butt;stroke-linejoin:miter;stroke-opacity:1"
       d="m 100.69299,371.95608 139.74599,0"
       id="path2995-7"
       inkscape:connector-curvature="0"
       inkscape:export-filename="/home/rustam/non-convergent-tree.png"
       inkscape:export-xdpi="90"
       inkscape:export-ydpi="90" />
    <path
       style="fill:none;stroke:#000000;stroke-width:0.65964592px;stroke-linecap:butt;stroke-linejoin:miter;stroke-opacity:1"
       d="m 100.69221,391.95608 139.24248,0"
       id="path2997-1"
       inkscape:connector-curvature="0"
       inkscape:export-filename="/home/rustam/non-convergent-tree.png"
       inkscape:export-xdpi="90"
       inkscape:export-ydpi="90" />
    <path
       style="fill:none;stroke:#000000;stroke-width:0.66083753px;stroke-linecap:butt;stroke-linejoin:miter;stroke-opacity:1"
       d="m 100.69299,411.95608 139.74599,0"
       id="path2999-3"
       inkscape:connector-curvature="0"
       inkscape:export-filename="/home/rustam/non-convergent-tree.png"
       inkscape:export-xdpi="90"
       inkscape:export-ydpi="90" />
    <path
       style="fill:none;stroke:#000000;stroke-width:0.66083753px;stroke-linecap:butt;stroke-linejoin:miter;stroke-opacity:1"
       d="m 100.69299,431.95608 139.74599,0"
       id="path3001-4"
       inkscape:connector-curvature="0"
       inkscape:export-filename="/home/rustam/non-convergent-tree.png"
       inkscape:export-xdpi="90"
       inkscape:export-ydpi="90" />
    <path
       style="fill:none;stroke:#000000;stroke-width:0.66083753px;stroke-linecap:butt;stroke-linejoin:miter;stroke-opacity:1"
       d="m 100.69299,451.95608 139.74599,0"
       id="path3003-3"
       inkscape:connector-curvature="0"
       inkscape:export-filename="/home/rustam/non-convergent-tree.png"
       inkscape:export-xdpi="90"
       inkscape:export-ydpi="90" />
    <path
       style="fill:none;stroke:#000000;stroke-width:0.66083753px;stroke-linecap:butt;stroke-linejoin:miter;stroke-opacity:1"
       d="m 100.69299,471.95608 139.74599,0"
       id="path3005-6"
       inkscape:connector-curvature="0"
       inkscape:export-filename="/home/rustam/non-convergent-tree.png"
       inkscape:export-xdpi="90"
       inkscape:export-ydpi="90" />
    <path
       style="fill:none;stroke:#000000;stroke-width:0.65964592px;stroke-linecap:butt;stroke-linejoin:miter;stroke-opacity:1"
       d="m 100.69221,491.95608 139.24248,0"
       id="path3007-9"
       inkscape:connector-curvature="0"
       inkscape:export-filename="/home/rustam/non-convergent-tree.png"
       inkscape:export-xdpi="90"
       inkscape:export-ydpi="90" />
    <path
       style="fill:none;stroke:#000000;stroke-width:1px;stroke-linecap:butt;stroke-linejoin:miter;stroke-opacity:1"
       d="m 120.97464,331.95608 0,180"
       id="path3009-0"
       inkscape:connector-curvature="0"
       inkscape:export-filename="/home/rustam/non-convergent-tree.png"
       inkscape:export-xdpi="90"
       inkscape:export-ydpi="90" />
    <path
       style="fill:none;stroke:#000000;stroke-width:1px;stroke-linecap:butt;stroke-linejoin:miter;stroke-opacity:1"
       d="m 140.97464,331.95608 0,180"
       id="path3011-9"
       inkscape:connector-curvature="0"
       inkscape:export-filename="/home/rustam/non-convergent-tree.png"
       inkscape:export-xdpi="90"
       inkscape:export-ydpi="90" />
    <path
       style="fill:none;stroke:#000000;stroke-width:1px;stroke-linecap:butt;stroke-linejoin:miter;stroke-opacity:1"
       d="m 160.97464,331.95608 0,180"
       id="path3013-9"
       inkscape:connector-curvature="0"
       inkscape:export-filename="/home/rustam/non-convergent-tree.png"
       inkscape:export-xdpi="90"
       inkscape:export-ydpi="90" />
    <path
       style="fill:none;stroke:#000000;stroke-width:1px;stroke-linecap:butt;stroke-linejoin:miter;stroke-opacity:1"
       d="m 180.97464,331.95608 0,180"
       id="path3015-6"
       inkscape:connector-curvature="0"
       inkscape:export-filename="/home/rustam/non-convergent-tree.png"
       inkscape:export-xdpi="90"
       inkscape:export-ydpi="90" />
    <path
       style="fill:none;stroke:#000000;stroke-width:1px;stroke-linecap:butt;stroke-linejoin:miter;stroke-opacity:1"
       d="m 200.97464,331.95608 0,180"
       id="path3017-5"
       inkscape:connector-curvature="0"
       inkscape:export-filename="/home/rustam/non-convergent-tree.png"
       inkscape:export-xdpi="90"
       inkscape:export-ydpi="90" />
    <path
       style="fill:none;stroke:#000000;stroke-width:1px;stroke-linecap:butt;stroke-linejoin:miter;stroke-opacity:1"
       d="m 220.97464,331.95608 0,180 0,0 0,0"
       id="path3019-0"
       inkscape:connector-curvature="0"
       inkscape:export-filename="/home/rustam/non-convergent-tree.png"
       inkscape:export-xdpi="90"
       inkscape:export-ydpi="90" />
    <path
       style="fill:none;stroke:#000000;stroke-width:1px;stroke-linecap:butt;stroke-linejoin:miter;stroke-opacity:1"
       d="m 240.97464,331.95608 0,180"
       id="path3021-0"
       inkscape:connector-curvature="0"
       inkscape:export-filename="/home/rustam/non-convergent-tree.png"
       inkscape:export-xdpi="90"
       inkscape:export-ydpi="90" />
    <path
       style="fill:none;stroke:#000000;stroke-width:1px;stroke-linecap:butt;stroke-linejoin:miter;stroke-opacity:1"
       d="m 160,112.36218 -20,20 c 0,0 -20,20 -40,40 l 120,120 0,0 0,0"
       id="path3126"
       inkscape:connector-curvature="0"
       inkscape:export-filename="/home/rustam/convergent-tree.png"
       inkscape:export-xdpi="90"
       inkscape:export-ydpi="90" />
    <path
       style="fill:none;stroke:#000000;stroke-width:1px;stroke-linecap:butt;stroke-linejoin:miter;stroke-opacity:1"
       d="m 180,112.36218 -60,60 120,120"
       id="path3128"
       inkscape:connector-curvature="0"
       inkscape:export-filename="/home/rustam/convergent-tree.png"
       inkscape:export-xdpi="90"
       inkscape:export-ydpi="90" />
    <path
       style="fill:none;stroke:#000000;stroke-width:1px;stroke-linecap:butt;stroke-linejoin:miter;stroke-opacity:1"
       d="m 200,112.36218 -60,60 120,120 20,0 -120,-120 60,-60 20,0 -60,60 120,120 20,0 -120,-120 60,-60 20,0 -60,60 120,120 20,0 -120,-120 60,-60 20,0 -60,60 120,120 20,0 -120,-120 60,-60 20,0 -60,60 120,120 0,-20 -100,-100 60,-60 20,0 -60,60 80,80 0,-20 -60,-60 60,-60 0,20 -40,40 40,39.99999 0,-19.99999 -20,-20 20,-20 0,20"
       id="path3130"
       inkscape:connector-curvature="0"
       sodipodi:nodetypes="ccccccccccccccccccccccccccccccccccccccccccc"
       inkscape:export-filename="/home/rustam/convergent-tree.png"
       inkscape:export-xdpi="90"
       inkscape:export-ydpi="90" />
    <path
       sodipodi:type="arc"
       style="fill:#000000;fill-opacity:0;stroke:#000000;stroke-width:1;stroke-miterlimit:4;stroke-dasharray:none;stroke-dashoffset:0"
       id="path3143"
       sodipodi:cx="65"
       sodipodi:cy="87.362183"
       sodipodi:rx="5"
       sodipodi:ry="5"
       d="m 70,87.362183 a 5,5 0 1 1 -10,0 5,5 0 1 1 10,0 z"
       transform="translate(54.5,204.5)"
       inkscape:export-filename="/home/rustam/convergent-tree.png"
       inkscape:export-xdpi="90"
       inkscape:export-ydpi="90" />
    <path
       sodipodi:type="arc"
       style="fill:#000000;fill-opacity:0;stroke:#000000;stroke-width:1;stroke-miterlimit:4;stroke-dasharray:none;stroke-dashoffset:0"
       id="path3143-1"
       sodipodi:cx="65"
       sodipodi:cy="87.362183"
       sodipodi:rx="5"
       sodipodi:ry="5"
       d="m 70,87.362183 a 5,5 0 1 1 -10,0 5,5 0 1 1 10,0 z"
       transform="translate(55.5,44.5)"
       inkscape:export-filename="/home/rustam/convergent-tree.png"
       inkscape:export-xdpi="90"
       inkscape:export-ydpi="90" />
    <path
       sodipodi:type="arc"
       style="fill:#000000;fill-opacity:0;stroke:#000000;stroke-width:1;stroke-miterlimit:4;stroke-dasharray:none;stroke-dashoffset:0"
       id="path3143-1-9"
       sodipodi:cx="65"
       sodipodi:cy="87.362183"
       sodipodi:rx="5"
       sodipodi:ry="5"
       d="m 70,87.362183 a 5,5 0 1 1 -10,0 5,5 0 1 1 10,0 z"
       transform="translate(75.5,25.5)"
       inkscape:export-filename="/home/rustam/convergent-tree.png"
       inkscape:export-xdpi="90"
       inkscape:export-ydpi="90" />
    <path
       sodipodi:type="arc"
       style="fill:#000000;fill-opacity:0;stroke:#000000;stroke-width:1;stroke-miterlimit:4;stroke-dasharray:none;stroke-dashoffset:0"
       id="path3143-0"
       sodipodi:cx="65"
       sodipodi:cy="87.362183"
       sodipodi:rx="5"
       sodipodi:ry="5"
       d="m 70,87.362183 a 5,5 0 1 1 -10,0 5,5 0 1 1 10,0 z"
       transform="translate(35.5,24.5)"
       inkscape:export-filename="/home/rustam/convergent-tree.png"
       inkscape:export-xdpi="90"
       inkscape:export-ydpi="90" />
    <path
       sodipodi:type="arc"
       style="fill:#000000;fill-opacity:0;stroke:#000000;stroke-width:1;stroke-miterlimit:4;stroke-dasharray:none;stroke-dashoffset:0"
       id="path3143-0-4"
       sodipodi:cx="65"
       sodipodi:cy="87.362183"
       sodipodi:rx="5"
       sodipodi:ry="5"
       d="m 70,87.362183 a 5,5 0 1 1 -10,0 5,5 0 1 1 10,0 z"
       transform="translate(35.5,45.5)"
       inkscape:export-filename="/home/rustam/convergent-tree.png"
       inkscape:export-xdpi="90"
       inkscape:export-ydpi="90" />
    <path
       sodipodi:type="arc"
       style="fill:#000000;fill-opacity:0;stroke:#000000;stroke-width:1;stroke-miterlimit:4;stroke-dasharray:none;stroke-dashoffset:0"
       id="path3143-3"
       sodipodi:cx="65"
       sodipodi:cy="87.362183"
       sodipodi:rx="5"
       sodipodi:ry="5"
       d="m 70,87.362183 a 5,5 0 1 1 -10,0 5,5 0 1 1 10,0 z"
       transform="translate(35.5,65.5)"
       inkscape:export-filename="/home/rustam/convergent-tree.png"
       inkscape:export-xdpi="90"
       inkscape:export-ydpi="90" />
    <path
       sodipodi:type="arc"
       style="fill:#000000;fill-opacity:0;stroke:#000000;stroke-width:1;stroke-miterlimit:4;stroke-dasharray:none;stroke-dashoffset:0"
       id="path3143-37"
       sodipodi:cx="65"
       sodipodi:cy="87.362183"
       sodipodi:rx="5"
       sodipodi:ry="5"
       d="m 70,87.362183 a 5,5 0 1 1 -10,0 5,5 0 1 1 10,0 z"
       transform="translate(35.5,124.5)"
       inkscape:export-filename="/home/rustam/convergent-tree.png"
       inkscape:export-xdpi="90"
       inkscape:export-ydpi="90" />
    <path
       sodipodi:type="arc"
       style="fill:#000000;fill-opacity:0;stroke:#000000;stroke-width:1;stroke-miterlimit:4;stroke-dasharray:none;stroke-dashoffset:0"
       id="path3143-5"
       sodipodi:cx="65"
       sodipodi:cy="87.362183"
       sodipodi:rx="5"
       sodipodi:ry="5"
       d="m 70,87.362183 a 5,5 0 1 1 -10,0 5,5 0 1 1 10,0 z"
       transform="translate(35.5,105.5)"
       inkscape:export-filename="/home/rustam/convergent-tree.png"
       inkscape:export-xdpi="90"
       inkscape:export-ydpi="90" />
    <path
       sodipodi:type="arc"
       style="fill:#000000;fill-opacity:0;stroke:#000000;stroke-width:1;stroke-miterlimit:4;stroke-dasharray:none;stroke-dashoffset:0"
       id="path3143-2"
       sodipodi:cx="65"
       sodipodi:cy="87.362183"
       sodipodi:rx="5"
       sodipodi:ry="5"
       d="m 70,87.362183 a 5,5 0 1 1 -10,0 5,5 0 1 1 10,0 z"
       transform="translate(35.5,145.5)"
       inkscape:export-filename="/home/rustam/convergent-tree.png"
       inkscape:export-xdpi="90"
       inkscape:export-ydpi="90" />
    <path
       sodipodi:type="arc"
       style="fill:#000000;fill-opacity:0;stroke:#000000;stroke-width:1;stroke-miterlimit:4;stroke-dasharray:none;stroke-dashoffset:0"
       id="path3143-98"
       sodipodi:cx="65"
       sodipodi:cy="87.362183"
       sodipodi:rx="5"
       sodipodi:ry="5"
       d="m 70,87.362183 a 5,5 0 1 1 -10,0 5,5 0 1 1 10,0 z"
       transform="translate(55.5,125.5)"
       inkscape:export-filename="/home/rustam/convergent-tree.png"
       inkscape:export-xdpi="90"
       inkscape:export-ydpi="90" />
    <path
       sodipodi:type="arc"
       style="fill:#000000;fill-opacity:0;stroke:#000000;stroke-width:1;stroke-miterlimit:4;stroke-dasharray:none;stroke-dashoffset:0"
       id="path3143-8"
       sodipodi:cx="65"
       sodipodi:cy="87.362183"
       sodipodi:rx="5"
       sodipodi:ry="5"
       d="m 70,87.362183 a 5,5 0 1 1 -10,0 5,5 0 1 1 10,0 z"
       transform="translate(55.5,144.5)"
       inkscape:export-filename="/home/rustam/convergent-tree.png"
       inkscape:export-xdpi="90"
       inkscape:export-ydpi="90" />
    <path
       sodipodi:type="arc"
       style="fill:#000000;fill-opacity:0;stroke:#000000;stroke-width:1;stroke-miterlimit:4;stroke-dasharray:none;stroke-dashoffset:0"
       id="path3143-8-2"
       sodipodi:cx="65"
       sodipodi:cy="87.362183"
       sodipodi:rx="5"
       sodipodi:ry="5"
       d="m 70,87.362183 a 5,5 0 1 1 -10,0 5,5 0 1 1 10,0 z"
       transform="translate(74.5,145.5)"
       inkscape:export-filename="/home/rustam/convergent-tree.png"
       inkscape:export-xdpi="90"
       inkscape:export-ydpi="90" />
    <path
       sodipodi:type="arc"
       style="fill:#000000;fill-opacity:0;stroke:#000000;stroke-width:1;stroke-miterlimit:4;stroke-dasharray:none;stroke-dashoffset:0"
       id="path3143-8-7"
       sodipodi:cx="65"
       sodipodi:cy="87.362183"
       sodipodi:rx="5"
       sodipodi:ry="5"
       d="m 70,87.362183 a 5,5 0 1 1 -10,0 5,5 0 1 1 10,0 z"
       transform="translate(95.5,164.5)"
       inkscape:export-filename="/home/rustam/convergent-tree.png"
       inkscape:export-xdpi="90"
       inkscape:export-ydpi="90" />
    <path
       sodipodi:type="arc"
       style="fill:#000000;fill-opacity:0;stroke:#000000;stroke-width:1;stroke-miterlimit:4;stroke-dasharray:none;stroke-dashoffset:0"
       id="path3143-8-74"
       sodipodi:cx="65"
       sodipodi:cy="87.362183"
       sodipodi:rx="5"
       sodipodi:ry="5"
       d="m 70,87.362183 a 5,5 0 1 1 -10,0 5,5 0 1 1 10,0 z"
       transform="translate(75.5,164.5)"
       inkscape:export-filename="/home/rustam/convergent-tree.png"
       inkscape:export-xdpi="90"
       inkscape:export-ydpi="90" />
    <path
       sodipodi:type="arc"
       style="fill:#000000;fill-opacity:0;stroke:#000000;stroke-width:1;stroke-miterlimit:4;stroke-dasharray:none;stroke-dashoffset:0"
       id="path3143-8-6"
       sodipodi:cx="65"
       sodipodi:cy="87.362183"
       sodipodi:rx="5"
       sodipodi:ry="5"
       d="m 70,87.362183 a 5,5 0 1 1 -10,0 5,5 0 1 1 10,0 z"
       transform="translate(95.5,185.5)"
       inkscape:export-filename="/home/rustam/convergent-tree.png"
       inkscape:export-xdpi="90"
       inkscape:export-ydpi="90" />
    <path
       sodipodi:type="arc"
       style="fill:#000000;fill-opacity:0;stroke:#000000;stroke-width:1;stroke-miterlimit:4;stroke-dasharray:none;stroke-dashoffset:0"
       id="path3143-8-8"
       sodipodi:cx="65"
       sodipodi:cy="87.362183"
       sodipodi:rx="5"
       sodipodi:ry="5"
       d="m 70,87.362183 a 5,5 0 1 1 -10,0 5,5 0 1 1 10,0 z"
       transform="translate(95.5,204.5)"
       inkscape:export-filename="/home/rustam/convergent-tree.png"
       inkscape:export-xdpi="90"
       inkscape:export-ydpi="90" />
    <path
       sodipodi:type="arc"
       style="fill:#000000;fill-opacity:0;stroke:#000000;stroke-width:1;stroke-miterlimit:4;stroke-dasharray:none;stroke-dashoffset:0"
       id="path3143-8-24"
       sodipodi:cx="65"
       sodipodi:cy="87.362183"
       sodipodi:rx="5"
       sodipodi:ry="5"
       d="m 70,87.362183 a 5,5 0 1 1 -10,0 5,5 0 1 1 10,0 z"
       transform="translate(74.5,204.5)"
       inkscape:export-filename="/home/rustam/convergent-tree.png"
       inkscape:export-xdpi="90"
       inkscape:export-ydpi="90" />
    <path
       sodipodi:type="arc"
       style="fill:#000000;fill-opacity:0;stroke:#000000;stroke-width:1;stroke-miterlimit:4;stroke-dasharray:none;stroke-dashoffset:0"
       id="path3143-8-9"
       sodipodi:cx="65"
       sodipodi:cy="87.362183"
       sodipodi:rx="5"
       sodipodi:ry="5"
       d="m 70,87.362183 a 5,5 0 1 1 -10,0 5,5 0 1 1 10,0 z"
       transform="translate(34.5,185.5)"
       inkscape:export-filename="/home/rustam/convergent-tree.png"
       inkscape:export-xdpi="90"
       inkscape:export-ydpi="90" />
    <path
       sodipodi:type="arc"
       style="fill:#000000;fill-opacity:0;stroke:#000000;stroke-width:1;stroke-miterlimit:4;stroke-dasharray:none;stroke-dashoffset:0"
       id="path3143-8-5"
       sodipodi:cx="65"
       sodipodi:cy="87.362183"
       sodipodi:rx="5"
       sodipodi:ry="5"
       d="m 70,87.362183 a 5,5 0 1 1 -10,0 5,5 0 1 1 10,0 z"
       transform="translate(34.5,204.5)"
       inkscape:export-filename="/home/rustam/convergent-tree.png"
       inkscape:export-xdpi="90"
       inkscape:export-ydpi="90" />
    <path
       sodipodi:type="arc"
       style="fill:#000000;fill-opacity:0;stroke:#000000;stroke-width:1;stroke-miterlimit:4;stroke-dasharray:none;stroke-dashoffset:0"
       id="path3143-8-93"
       sodipodi:cx="65"
       sodipodi:cy="87.362183"
       sodipodi:rx="5"
       sodipodi:ry="5"
       d="m 70,87.362183 a 5,5 0 1 1 -10,0 5,5 0 1 1 10,0 z"
       transform="translate(54.5,184.5)"
       inkscape:export-filename="/home/rustam/convergent-tree.png"
       inkscape:export-xdpi="90"
       inkscape:export-ydpi="90" />
    <path
       sodipodi:type="arc"
       style="fill:#000000;fill-opacity:0;stroke:#000000;stroke-width:1;stroke-miterlimit:4;stroke-dasharray:none;stroke-dashoffset:0"
       id="path3143-8-29"
       sodipodi:cx="65"
       sodipodi:cy="87.362183"
       sodipodi:rx="5"
       sodipodi:ry="5"
       d="m 70,87.362183 a 5,5 0 1 1 -10,0 5,5 0 1 1 10,0 z"
       transform="translate(75.5,185.5)"
       inkscape:export-filename="/home/rustam/convergent-tree.png"
       inkscape:export-xdpi="90"
       inkscape:export-ydpi="90" />
    <path
       sodipodi:type="arc"
       style="fill:#000000;fill-opacity:0;stroke:#000000;stroke-width:1;stroke-miterlimit:4;stroke-dasharray:none;stroke-dashoffset:0"
       id="path3143-8-1"
       sodipodi:cx="65"
       sodipodi:cy="87.362183"
       sodipodi:rx="5"
       sodipodi:ry="5"
       d="m 70,87.362183 a 5,5 0 1 1 -10,0 5,5 0 1 1 10,0 z"
       transform="translate(34.5,164.5)"
       inkscape:export-filename="/home/rustam/convergent-tree.png"
       inkscape:export-xdpi="90"
       inkscape:export-ydpi="90" />
    <path
       sodipodi:type="arc"
       style="fill:#000000;fill-opacity:0;stroke:#000000;stroke-width:1;stroke-miterlimit:4;stroke-dasharray:none;stroke-dashoffset:0"
       id="path3143-8-3"
       sodipodi:cx="65"
       sodipodi:cy="87.362183"
       sodipodi:rx="5"
       sodipodi:ry="5"
       d="m 70,87.362183 a 5,5 0 1 1 -10,0 5,5 0 1 1 10,0 z"
       transform="translate(54.5,164.5)"
       inkscape:export-filename="/home/rustam/convergent-tree.png"
       inkscape:export-xdpi="90"
       inkscape:export-ydpi="90" />
    <path
       sodipodi:type="arc"
       style="fill:#000000;fill-opacity:0;stroke:#000000;stroke-width:1;stroke-miterlimit:4;stroke-dasharray:none;stroke-dashoffset:0"
       id="path3143-8-85-2"
       sodipodi:cx="65"
       sodipodi:cy="87.362183"
       sodipodi:rx="5"
       sodipodi:ry="5"
       d="m 70,87.362183 a 5,5 0 1 1 -10,0 5,5 0 1 1 10,0 z"
       transform="translate(115.5,185.5)"
       inkscape:export-filename="/home/rustam/convergent-tree.png"
       inkscape:export-xdpi="90"
       inkscape:export-ydpi="90" />
    <path
       sodipodi:type="arc"
       style="fill:#000000;fill-opacity:0;stroke:#000000;stroke-width:1;stroke-miterlimit:4;stroke-dasharray:none;stroke-dashoffset:0"
       id="path3143-8-85-0"
       sodipodi:cx="65"
       sodipodi:cy="87.362183"
       sodipodi:rx="5"
       sodipodi:ry="5"
       d="m 70,87.362183 a 5,5 0 1 1 -10,0 5,5 0 1 1 10,0 z"
       transform="translate(114.5,204.5)"
       inkscape:export-filename="/home/rustam/convergent-tree.png"
       inkscape:export-xdpi="90"
       inkscape:export-ydpi="90" />
    <path
       sodipodi:type="arc"
       style="fill:#000000;fill-opacity:0;stroke:#000000;stroke-width:1;stroke-miterlimit:4;stroke-dasharray:none;stroke-dashoffset:0"
       id="path3143-8-85-5"
       sodipodi:cx="65"
       sodipodi:cy="87.362183"
       sodipodi:rx="5"
       sodipodi:ry="5"
       d="m 70,87.362183 a 5,5 0 1 1 -10,0 5,5 0 1 1 10,0 z"
       transform="translate(134.5,204.5)"
       inkscape:export-filename="/home/rustam/convergent-tree.png"
       inkscape:export-xdpi="90"
       inkscape:export-ydpi="90" />
    <path
       style="fill:none;stroke:#000000;stroke-width:1px;stroke-linecap:butt;stroke-linejoin:miter;stroke-opacity:1"
       d="m 240,332.36218 -140,140 0,-100 140,140 -100,0 -40,-40"
       id="path5653"
       inkscape:connector-curvature="0"
       inkscape:export-filename="/home/rustam/non-convergent-tree.png"
       inkscape:export-xdpi="90"
       inkscape:export-ydpi="90" />
    <path
       style="fill:none;stroke:#000000;stroke-width:1px;stroke-linecap:butt;stroke-linejoin:miter;stroke-opacity:1"
       d="m 100,372.36218 40,-40 100,100 -80,80 -60,-60 120,-120 -20,0 -100,100 0,-20 80,-80 -20,0 -60,60"
       id="path5657"
       inkscape:connector-curvature="0"
       inkscape:export-filename="/home/rustam/non-convergent-tree.png"
       inkscape:export-xdpi="90"
       inkscape:export-ydpi="90" />
    <path
       style="fill:none;stroke:#000000;stroke-width:1px;stroke-linecap:butt;stroke-linejoin:miter;stroke-opacity:1"
       d="m 240,492.36218 -120,-120"
       id="path5659"
       inkscape:connector-curvature="0"
       inkscape:export-filename="/home/rustam/non-convergent-tree.png"
       inkscape:export-xdpi="90"
       inkscape:export-ydpi="90" />
    <path
       style="fill:none;stroke:#000000;stroke-width:1px;stroke-linecap:butt;stroke-linejoin:miter;stroke-opacity:1"
       d="m 240,472.36218 -120,-120"
       id="path5661"
       inkscape:connector-curvature="0"
       inkscape:export-filename="/home/rustam/non-convergent-tree.png"
       inkscape:export-xdpi="90"
       inkscape:export-ydpi="90" />
    <path
       style="fill:none;stroke:#000000;stroke-width:1px;stroke-linecap:butt;stroke-linejoin:miter;stroke-opacity:1"
       d="m 140,352.36218 100,100"
       id="path5663"
       inkscape:connector-curvature="0"
       inkscape:export-filename="/home/rustam/non-convergent-tree.png"
       inkscape:export-xdpi="90"
       inkscape:export-ydpi="90" />
    <path
       style="fill:none;stroke:#000000;stroke-width:1px;stroke-linecap:butt;stroke-linejoin:miter;stroke-opacity:1"
       d="m 160,332.36218 80,80"
       id="path5665"
       inkscape:connector-curvature="0"
       inkscape:export-filename="/home/rustam/non-convergent-tree.png"
       inkscape:export-xdpi="90"
       inkscape:export-ydpi="90" />
    <path
       style="fill:none;stroke:#000000;stroke-width:1px;stroke-linecap:butt;stroke-linejoin:miter;stroke-opacity:1"
       d="m 180,332.36218 60,60"
       id="path5667"
       inkscape:connector-curvature="0"
       inkscape:export-filename="/home/rustam/non-convergent-tree.png"
       inkscape:export-xdpi="90"
       inkscape:export-ydpi="90" />
    <path
       style="fill:none;stroke:#000000;stroke-width:1px;stroke-linecap:butt;stroke-linejoin:miter;stroke-opacity:1"
       d="m 200,332.36218 40,40"
       id="path5669"
       inkscape:connector-curvature="0"
       inkscape:export-filename="/home/rustam/non-convergent-tree.png"
       inkscape:export-xdpi="90"
       inkscape:export-ydpi="90" />
    <path
       style="fill:none;stroke:#000000;stroke-width:1px;stroke-linecap:butt;stroke-linejoin:miter;stroke-opacity:1"
       d="m 220,332.36218 20,20"
       id="path5671"
       inkscape:connector-curvature="0"
       inkscape:export-filename="/home/rustam/non-convergent-tree.png"
       inkscape:export-xdpi="90"
       inkscape:export-ydpi="90" />
    <path
       style="fill:none;stroke:#000000;stroke-width:1px;stroke-linecap:butt;stroke-linejoin:miter;stroke-opacity:1"
       d="m 180,332.36218 20,0 0,0"
       id="path5673"
       inkscape:connector-curvature="0"
       inkscape:export-filename="/home/rustam/non-convergent-tree.png"
       inkscape:export-xdpi="90"
       inkscape:export-ydpi="90" />
    <path
       style="fill:none;stroke:#000000;stroke-width:1px;stroke-linecap:butt;stroke-linejoin:miter;stroke-opacity:1"
       d="m 140,332.36218 20,0"
       id="path5675"
       inkscape:connector-curvature="0"
       inkscape:export-filename="/home/rustam/non-convergent-tree.png"
       inkscape:export-xdpi="90"
       inkscape:export-ydpi="90" />
    <path
       style="fill:none;stroke:#000000;stroke-width:1px;stroke-linecap:butt;stroke-linejoin:miter;stroke-opacity:1"
       d="m 100,392.36218 120,120 -20,0 -100,-100 0,20 80,80 -40,0"
       id="path5677"
       inkscape:connector-curvature="0"
       inkscape:export-filename="/home/rustam/non-convergent-tree.png"
       inkscape:export-xdpi="90"
       inkscape:export-ydpi="90" />
    <path
       style="fill:none;stroke:#000000;stroke-width:1px;stroke-linecap:butt;stroke-linejoin:miter;stroke-opacity:1"
       d="m 120,492.36218 120,-120 0,-20 -120,120"
       id="path5679"
       inkscape:connector-curvature="0"
       inkscape:export-filename="/home/rustam/non-convergent-tree.png"
       inkscape:export-xdpi="90"
       inkscape:export-ydpi="90" />
    <path
       style="fill:none;stroke:#000000;stroke-width:1px;stroke-linecap:butt;stroke-linejoin:miter;stroke-opacity:1"
       d="m 140,492.36218 100,-100 0,20 -80,80 0,0 0,0"
       id="path5681"
       inkscape:connector-curvature="0"
       inkscape:export-filename="/home/rustam/non-convergent-tree.png"
       inkscape:export-xdpi="90"
       inkscape:export-ydpi="90" />
    <path
       style="fill:none;stroke:#000000;stroke-width:1px;stroke-linecap:butt;stroke-linejoin:miter;stroke-opacity:1"
       d="m 180,512.36218 60,-60 0,20 -40,40 20,0 20,-20"
       id="path5683"
       inkscape:connector-curvature="0"
       inkscape:export-filename="/home/rustam/non-convergent-tree.png"
       inkscape:export-xdpi="90"
       inkscape:export-ydpi="90" />
    <path
       style="fill:none;stroke:#000000;stroke-width:1px;stroke-linecap:butt;stroke-linejoin:miter;stroke-opacity:1"
       d="m 220,332.36218 20,0 0,180 -100,0"
       id="path5685"
       inkscape:connector-curvature="0"
       inkscape:export-filename="/home/rustam/non-convergent-tree.png"
       inkscape:export-xdpi="90"
       inkscape:export-ydpi="90" />
    <path
       style="fill:none;stroke:#000000;stroke-width:1px;stroke-linecap:butt;stroke-linejoin:miter;stroke-opacity:1"
       d="m 400,112.36218 20,20 0,20 -40,-40 -20,0 60,60 0,20 -80,-80 -20,0 100,100 0,20 -120,-120 -20,0 140,140 0,20 -160,-160 -20,0 180,180 -20,0 -180,-180 -20,0 180,180 -20,0 -180,-180 -20,0 180,180 -20,0 -160,-160 -20,0 160,160 -20,0 -140,-140 -20,0 140,140 -20,0 0,0"
       id="path5687"
       inkscape:connector-curvature="0"
       inkscape:export-filename="/home/rustam/convergent-tree.png"
       inkscape:export-xdpi="90"
       inkscape:export-ydpi="90" />
    <path
       style="fill:none;stroke:#000000;stroke-width:1px;stroke-linecap:butt;stroke-linejoin:miter;stroke-opacity:1"
       d="m 400,292.36218 20,-20 0,-20 -40,40 -20,0 60,-60 0,-20 -80,80 -20,0 100,-100 0,-20 -120,120 -20,0 120,-120 -20,0 -120,120 -20,0 120,-120 -20,0 -120,120 0,-20 100,-100 -20,0 -80,80 -20,0 80,-80 -20,0 -60,60 -20,0 60,-60 -20,0 -60,60 0,-20 40,-40 -20,0 -20,20 -20,0 20,-20 -20,0 -20,20"
       id="path5689"
       inkscape:connector-curvature="0"
       sodipodi:nodetypes="cccccccccccccccccccccccccccccccccccccccc"
       inkscape:export-filename="/home/rustam/convergent-tree.png"
       inkscape:export-xdpi="90"
       inkscape:export-ydpi="90" />
    <path
       style="fill:none;stroke:#000000;stroke-width:1px;stroke-linecap:butt;stroke-linejoin:miter;stroke-opacity:1"
       d="m 160,192.36218 -20,20"
       id="path5691"
       inkscape:connector-curvature="0"
       inkscape:export-filename="/home/rustam/convergent-tree.png"
       inkscape:export-xdpi="90"
       inkscape:export-ydpi="90" />
    <path
       style="fill:none;stroke:#000000;stroke-width:1px;stroke-linecap:butt;stroke-linejoin:miter;stroke-opacity:1"
       d="m 200,232.36218 -20,20"
       id="path5693"
       inkscape:connector-curvature="0"
       inkscape:export-filename="/home/rustam/convergent-tree.png"
       inkscape:export-xdpi="90"
       inkscape:export-ydpi="90" />
    <path
       style="fill:none;stroke:#000000;stroke-width:1px;stroke-linecap:butt;stroke-linejoin:miter;stroke-opacity:1"
       d="m 220,252.36218 -20,20"
       id="path5695"
       inkscape:connector-curvature="0"
       inkscape:export-filename="/home/rustam/convergent-tree.png"
       inkscape:export-xdpi="90"
       inkscape:export-ydpi="90" />
    <text
       xml:space="preserve"
       style="font-size:14.31772137px;font-style:normal;font-weight:normal;line-height:125%;letter-spacing:0px;word-spacing:0px;fill:#000000;fill-opacity:1;stroke:none;font-family:Sans"
       x="50"
       y="177.36218"
       id="text5697"
       sodipodi:linespacing="125%"
       inkscape:export-filename="/home/rustam/convergent-tree.png"
       inkscape:export-xdpi="90"
       inkscape:export-ydpi="90"><tspan
         sodipodi:role="line"
         id="tspan5699"
         x="50"
         y="177.36218">Strike</tspan></text>
    <text
       xml:space="preserve"
       style="font-size:14.31772137px;font-style:normal;font-weight:normal;line-height:125%;letter-spacing:0px;word-spacing:0px;fill:#000000;fill-opacity:1;stroke:none;font-family:Sans"
       x="55"
       y="437.36218"
       id="text5697-8"
       sodipodi:linespacing="125%"
       inkscape:export-filename="/home/rustam/non-convergent-tree.png"
       inkscape:export-xdpi="90"
       inkscape:export-ydpi="90"><tspan
         sodipodi:role="line"
         id="tspan5699-0"
         x="55"
         y="437.36218">Strike</tspan></text>
  </g>
</svg>
